<svg xmlns="http://www.w3.org/2000/svg" viewBox="0 0 48 48" width="48" height="48">
  <rect width="48" height="48" rx="11" fill="#10B981"/>
  <path d="M16 6 h16 a10 10 0 0 1 10 10 v4 h-4 v6 h4 v6 a10 10 0 0 1 -10 10 h-16 a10 10 0 0 1 -10 -10 v-6 h4 v-6 h-4 v-4 a10 10 0 0 1 10 -10 z M16 12 H32 A4 4 0 0 1 36 16 V18 A2 2 0 0 1 34 20 H14 A2 2 0 0 1 12 18 V16 A4 4 0 0 1 16 12 Z M14 26 H34 A2 2 0 0 1 36 28 V32 A4 4 0 0 1 32 36 H16 A4 4 0 0 1 12 32 V28 A2 2 0 0 1 14 26 Z" fill="#080C10" fill-rule="evenodd"/>
</svg>
